<svg id="Layer_1" data-name="Layer 1" xmlns="http://www.w3.org/2000/svg" viewBox="0 0 417 264"><defs><style>.cls-1{fill:#069c54;}</style></defs><title>Untitled-3</title><path class="cls-1" d="M163.3,254.61a34.8,34.8,0,1,0,34.8,34.8A34.83,34.83,0,0,0,163.3,254.61Zm0,58a23.2,23.2,0,1,1,23.2-23.2A23.22,23.22,0,0,1,163.3,312.61Z" transform="translate(-42 -75)"/><path class="cls-1" d="M360.5,254.61a34.8,34.8,0,1,0,34.8,34.8A34.83,34.83,0,0,0,360.5,254.61Zm0,58a23.2,23.2,0,1,1,23.2-23.2A23.22,23.22,0,0,1,360.5,312.61Z" transform="translate(-42 -75)"/><path class="cls-1" d="M429.07,222.61l-52.43-81.06a5.84,5.84,0,0,0-4.9-2.66H308a5.8,5.8,0,0,0-5.8,5.8V289.42a5.8,5.8,0,0,0,5.8,5.8h23.43V283.66H313.77V150.45h54.72l50,77v56.22H389.22v11.55h35a5.8,5.8,0,0,0,5.8-5.8V225.74A5.75,5.75,0,0,0,429.07,222.61Z" transform="translate(-42 -75)"/><path class="cls-1" d="M337.56,214.34V173.55h46.22V162h-52a5.8,5.8,0,0,0-5.8,5.8v52.29a5.8,5.8,0,0,0,5.8,5.8h86.64V214.34H337.56Z" transform="translate(-42 -75)"/><path class="cls-1" d="M308,98.11H87.8a5.8,5.8,0,0,0-5.8,5.8V289.42a5.8,5.8,0,0,0,5.8,5.8h46.54V283.66H93.55v-174H302.22v174H192.11v11.55H308a5.8,5.8,0,0,0,5.8-5.8V103.91A5.8,5.8,0,0,0,308,98.11Z" transform="translate(-42 -75)"/><rect class="cls-1" x="46.12" y="185.55" width="34.66" height="11.55"/><rect class="cls-1" x="161.66" y="185.55" width="98.55" height="11.55"/><rect class="cls-1" x="359.45" y="185.55" width="23.11" height="11.55"/><rect class="cls-1" x="63.11" y="46.22" width="203.23" height="11.55"/><rect class="cls-1" x="115.45" y="208.66" width="11.55" height="11.55"/><rect class="cls-1" x="312.55" y="208.66" width="11.55" height="11.55"/><rect class="cls-1" x="63.79" width="80.88" height="11.55"/><rect class="cls-1" x="40" width="11.55" height="11.55"/><rect class="cls-1" y="249" width="417" height="15"/></svg>