<svg id="Layer_1" data-name="Layer 1" xmlns="http://www.w3.org/2000/svg" viewBox="0 0 250.12 380.03"><defs><style>.cls-1{fill:#069c54;}</style></defs><title>Untitled-2</title><path class="cls-1" d="M375.44,307.8a4.53,4.53,0,0,0,.88-4.74L302.58,117.21a24.79,24.79,0,0,0-31.86-34.77,244.32,244.32,0,0,0-127.48,136.8,24.79,24.79,0,0,0,33.8,31.1l193.76,58.73A4.53,4.53,0,0,0,375.44,307.8Zm-71.32-162.1,7.81,19.7a11.56,11.56,0,1,1-7.81-19.7ZM161,242.66a15.75,15.75,0,0,1-9.23-20.24A233.71,233.71,0,0,1,274.48,90.69a15.73,15.73,0,0,1,13.06,28.63,203.78,203.78,0,0,0-106.33,114.1A15.75,15.75,0,0,1,161,242.66Zm138.83,35.41a11.69,11.69,0,0,1,0-1.23,11.56,11.56,0,1,1,21,7.62Zm30,9.09a20.62,20.62,0,1,0-38.91-11.79l-26.65-8.08,7.58-10.64a4.53,4.53,0,1,0-7.38-5.26l-9.36,13.13-69.32-21a24.7,24.7,0,0,0,3.95-6.91,193.44,193.44,0,0,1,101.6-109,24.78,24.78,0,0,0,4.56-2.71l4.75,12a20.65,20.65,0,0,0-17.4,18.42,20.91,20.91,0,0,0-.08,2.74,20.62,20.62,0,0,0,32.31,16.21l22.07,55.62-5.08,2.32a4.53,4.53,0,1,0,3.76,8.25l4.66-2.13,23.56,59.38Z" transform="translate(-126.52 -80.2)"/><path class="cls-1" d="M248.78,130.32l.1-.07a4.54,4.54,0,1,0-.1.07Z" transform="translate(-126.52 -80.2)"/><path class="cls-1" d="M259.8,123a214.6,214.6,0,0,1,23.67-12.65,4.53,4.53,0,0,0-3.76-8.25A223.63,223.63,0,0,0,255,115.32,4.53,4.53,0,1,0,259.8,123Z" transform="translate(-126.52 -80.2)"/><path class="cls-1" d="M315.63,220.94a20.63,20.63,0,1,0-22.5,18.56A20.77,20.77,0,0,0,315.63,220.94ZM294,230.47a11.58,11.58,0,0,1-10.45-11.08,11.7,11.7,0,0,1,0-1.53,11.56,11.56,0,0,1,23.05.68,11.7,11.7,0,0,1,0,1.53A11.57,11.57,0,0,1,294,230.47Z" transform="translate(-126.52 -80.2)"/><path class="cls-1" d="M259.22,221.75a20.61,20.61,0,0,0-18.56-22.5,20.63,20.63,0,0,0-22.5,18.56,20.63,20.63,0,0,0,41.06,3.94Zm-21.63,9.53a11.58,11.58,0,0,1-10.45-11.08,11.77,11.77,0,0,1,0-1.53,11.56,11.56,0,0,1,23.05.68,11.71,11.71,0,0,1,0,1.53A11.57,11.57,0,0,1,237.59,231.28Z" transform="translate(-126.52 -80.2)"/><path class="cls-1" d="M276.94,191.2l1.34-14a4.53,4.53,0,1,0-9-.87l-1.34,14a4.53,4.53,0,0,0,9,.87Z" transform="translate(-126.52 -80.2)"/><path class="cls-1" d="M243.25,185.32l9.3-1.56a4.53,4.53,0,1,0-1.5-8.94l-9.3,1.56a4.53,4.53,0,1,0,1.5,8.94Z" transform="translate(-126.52 -80.2)"/><path class="cls-1" d="M375.28,308.6a4.53,4.53,0,0,0-3.41-3.41L177,260.55a24.79,24.79,0,0,0-46.71,6.53,244.32,244.32,0,0,0,40.4,182.58,24.79,24.79,0,0,0,44.78-10.21l158.24-126.3A4.53,4.53,0,0,0,375.28,308.6Zm-174-33.17L222,280.16a11.56,11.56,0,1,1-20.65-4.73ZM200,448.33a15.75,15.75,0,0,1-21.91-3.87,233.71,233.71,0,0,1-38.9-175.8,15.73,15.73,0,0,1,31,5.48,203.78,203.78,0,0,0,33.7,152.29A15.75,15.75,0,0,1,200,448.33ZM307.9,354.06a11.69,11.69,0,0,1-1-.74,11.56,11.56,0,1,1,18.21-13Zm24.5-19.55a20.62,20.62,0,1,0-31.77,25.36l-21.77,17.37L274.39,365a4.53,4.53,0,1,0-8.52,3.1l5.51,15.15L214.77,428.4a24.7,24.7,0,0,0-3.45-7.17,193.44,193.44,0,0,1-32.2-145.51,24.78,24.78,0,0,0,.36-5.29L192,273.3a20.65,20.65,0,0,0,5.31,24.78,20.91,20.91,0,0,0,2.21,1.62,20.62,20.62,0,0,0,31.67-17.42l58.33,13.36-1,5.5a4.53,4.53,0,1,0,8.93,1.58l.89-5,62.27,14.26Z" transform="translate(-126.52 -80.2)"/><path class="cls-1" d="M157.27,312.3s0-.09,0-.12a4.54,4.54,0,1,0,0,.12Z" transform="translate(-126.52 -80.2)"/><path class="cls-1" d="M157.52,299.09a214.6,214.6,0,0,1,3-26.66,4.53,4.53,0,0,0-8.93-1.58,223.63,223.63,0,0,0-3.13,27.8,4.53,4.53,0,1,0,9.06.45Z" transform="translate(-126.52 -80.2)"/><path class="cls-1" d="M269.82,308.62a20.63,20.63,0,1,0,2.53,29.06A20.77,20.77,0,0,0,269.82,308.62Zm-4.41,23.23a11.58,11.58,0,0,1-15,2.32,11.7,11.7,0,0,1-1.23-.91,11.56,11.56,0,0,1,13.63-18.61,11.7,11.7,0,0,1,1.23.91A11.57,11.57,0,0,1,265.4,331.85Z" transform="translate(-126.52 -80.2)"/><path class="cls-1" d="M238.5,355.54a20.61,20.61,0,0,0-29.06,2.53A20.63,20.63,0,0,0,212,387.13a20.63,20.63,0,0,0,26.53-31.59Zm-4.41,23.23a11.58,11.58,0,0,1-15,2.32,11.77,11.77,0,0,1-1.23-.91,11.56,11.56,0,0,1,13.63-18.61,11.71,11.71,0,0,1,1.24.91A11.57,11.57,0,0,1,234.09,378.77Z" transform="translate(-126.52 -80.2)"/><path class="cls-1" d="M223.39,323.62l-10.76-9a4.53,4.53,0,0,0-5.83,6.94l10.76,9a4.53,4.53,0,0,0,5.83-6.94Z" transform="translate(-126.52 -80.2)"/><path class="cls-1" d="M199.44,348l4-8.55a4.53,4.53,0,1,0-8.22-3.84l-4,8.55a4.53,4.53,0,1,0,8.22,3.84Z" transform="translate(-126.52 -80.2)"/></svg>